# Blender v2.79 (sub 0) OBJ File: 'untitled.blend'
# www.blender.org
o Cube
v 1.000000 -1.000000 -1.000000
v 1.000000 -1.000000 1.000000
v -1.000000 -1.000000 1.000000
v -1.000000 -1.000000 -1.000000
v 1.000000 1.000000 -0.999999
v 0.999999 1.000000 1.000001
v -1.000000 1.000000 1.000000
v -1.000000 1.000000 -1.000000
vt -0.000730 0.500769
vt 0.248968 0.250554
vt 0.249227 0.500510
vt 0.498975 0.249781
vt 0.749190 0.499478
vt 0.499234 0.499737
vt 0.250277 0.747894
vt 0.000079 0.498178
vt 0.250036 0.497937
vt 0.998888 0.249263
vt 0.999147 0.499219
vt -0.000314 0.251206
vt 0.249634 0.001240
vt -0.000323 0.001249
vt 0.249277 0.499996
vt -0.000989 0.250813
vt 0.748931 0.249522
vt 0.000321 0.748135
vt 0.249643 0.251197
vt 0.249018 0.250040
vn 0.0000 -1.0000 0.0000
vn 0.0000 1.0000 0.0000
vn 1.0000 -0.0000 0.0000
vn 0.0000 -0.0000 1.0000
s off
f 2/1/1 4/2/1 1/3/1
f 8/4/2 6/5/2 5/6/2
f 5/7/3 2/8/3 1/9/3
f 6/5/4 3/10/4 2/11/4
f 3/12/3 8/13/3 7/14/3
f 8/4/4 1/15/4 5/6/4
f 2/1/1 3/16/1 4/2/1
f 8/4/2 7/17/2 6/5/2
f 5/7/3 6/18/3 2/8/3
f 6/5/4 7/17/4 3/10/4
f 3/12/3 4/19/3 8/13/3
f 8/4/4 4/20/4 1/15/4
